<?xml version="1.0" standalone="no"?>
<!DOCTYPE svg PUBLIC "-//W3C//DTD SVG 20010904//EN"
 "http://www.w3.org/TR/2001/REC-SVG-20010904/DTD/svg10.dtd">
<svg version="1.0" xmlns="http://www.w3.org/2000/svg"
 width="300.000000pt" height="300.000000pt" viewBox="0 0 300.000000 300.000000"
 preserveAspectRatio="xMidYMid meet">
<metadata>
Created by potrace 1.10, written by Peter Selinger 2001-2011
</metadata>
<g transform="translate(0.000000,300.000000) scale(0.100000,-0.100000)"
fill="#000000" stroke="none">
<path d="M880 1568 c-227 -508 -428 -954 -445 -993 l-32 -70 203 0 203 0 84
185 84 185 250 5 250 5 -76 170 -77 170 -96 5 -96 5 142 325 c78 179 160 367
181 417 22 51 42 93 45 93 3 0 23 -42 45 -93 22 -50 103 -238 181 -417 l142
-325 -88 -3 -88 -3 28 -57 c15 -31 51 -110 80 -174 l53 -117 85 -3 86 -3 80
-182 81 -182 205 -3 c113 -2 205 -3 206 -3 1 0 -199 447 -444 993 l-446 992
-206 0 -206 0 -414 -922z m988 490 c99 -222 291 -649 426 -951 135 -301 246
-552 246 -557 0 -6 -65 -10 -168 -10 l-167 0 -75 166 c-41 91 -80 174 -88 185
-11 16 -26 19 -91 19 -70 0 -79 2 -89 23 -31 61 -112 241 -112 248 0 5 24 9
54 9 58 0 86 16 86 49 0 28 -349 823 -371 846 -19 19 -19 19 -38 0 -11 -11
-90 -182 -176 -380 -86 -198 -165 -380 -176 -404 -24 -55 -24 -73 0 -95 15
-14 35 -17 97 -15 l78 2 31 -64 c26 -55 75 -164 92 -206 4 -10 -45 -13 -225
-13 -201 0 -231 -2 -243 -16 -8 -10 -48 -92 -90 -183 l-75 -166 -167 -3 c-109
-2 -167 1 -167 8 0 5 50 121 111 258 62 136 126 281 144 322 18 41 56 127 85
190 73 162 172 381 245 545 197 441 248 552 261 573 14 21 19 22 198 22 l183
0 181 -402z"/>
</g>
</svg>
